<svg version="1.0" xmlns="http://www.w3.org/2000/svg" width="853.333" height="853.333" viewBox="0 0 640 640"><path d="M305.9 16.5c-.2.1-3.1.6-6.4.9-5.5.6-8.2 1-14 2.1-1.1.2-2 .4-2 .5 0 .1-1.1.3-2.5.5-12.7 1.8-35.3 9.6-52.2 18-36.7 18.4-65.3 45.4-88.7 83.8-2.2 3.7-4.1 6.9-4.1 7.2 0 .2-1.8 4.2-4.1 8.7-3.9 8-11.9 30.5-13.5 37.8-.4 1.9-.9 3.9-1 4.5-.7 2.6-3.3 16.5-3.9 20.5-.5 3.5-1.7 24.9-1.7 30.5 0 2.2 1.2 17.2 1.7 21 .3 2.2.6 4.7.6 5.5.1 1.3.9 5.5 2.5 14 4 20.6 15 47.5 27.5 67.6 5.2 8.4 7.7 10.8 12.5 12.4 5.9 2 9.9.8 28.9-8.7 22-10.9 21.9-10.8 24.4-15.4 4.8-8.5 1.4-18.8-7.7-23.1-5.2-2.4-10.2-1.5-21.8 4.1-5.8 2.8-11.1 5.1-11.9 5.1-1.1 0-4.9-7-9.9-18-3-6.8-9.1-27.3-10.1-33.9-.2-1.4-.6-3.7-.9-5.1-1.5-8.1-1.9-11.9-2.1-25.5-.3-16.6.5-25.1 3.6-40 2.4-11.4 6.5-25.2 7.8-26 .5-.3 6.6 2.2 13.6 5.6 13.2 6.3 16.6 7 22.8 5 9.5-3.2 13.5-15.9 7.7-24.5-2-3.1-5-4.9-15.7-10.2-7.3-3.5-13.3-6.8-13.3-7.2 0-1 6.8-10.9 10.7-15.7 8.8-10.8 11.7-13.9 24.1-25.6 4-3.8 17.9-13.9 19.1-13.9.6 0 1.1-.4 1.1-.9 0-1 7.6-5.3 20.9-11.7 9.5-4.6 26.7-10.8 33-11.9 1.9-.3 3.7-.8 4.1-1 1.4-.8 14-2.8 18.9-2.9l3.5-.1.1 14c.2 15.1 1 18.6 5.3 22.4 5.7 4.9 12.7 5.6 19.4 1.9 7-3.9 8.3-7.7 8.3-24.6V49.9l6.5.7c3.6.3 6.8.8 7.1 1 .3.2 2.1.6 4 .9 9.5 1.7 29.6 7.5 32.4 9.5 2.8 1.9 11.5 4.3 14.9 4.1 14.1-.8 20.5-18.1 10.4-28-5-4.9-33.4-15.2-48.2-17.5-2.1-.4-4.1-.8-4.5-1-.3-.2-2.8-.6-5.6-1-2.7-.3-6.1-.9-7.5-1.2-2.6-.6-43.5-1.5-44.1-.9z"/><path d="M452.6 77.1c-2.2 1.1-6.2 3.7-9 5.8-5.9 4.3-21.8 15.1-24.4 16.6-.9.5-1.9 1.3-2.2 1.6-.3.3-4.8 3.4-10 6.9-5.2 3.6-9.7 6.7-10 7-.3.3-1.2.9-2.1 1.5-3 1.9-15.4 10.4-20.4 13.9-2.7 2-8.6 6.1-13 9.2-4.4 3-11.1 7.8-15 10.5-3.8 2.7-8.1 5.7-9.5 6.7-3.2 2.1-3.8 2.6-7.6 5.7-1.8 1.4-3.5 2.5-3.8 2.5-.4 0-1.2.5-1.9 1-.7.6-8.2 6.3-16.7 12.6-8.5 6.4-17.4 13.7-19.8 16.2-5.2 5.6-10.7 16.7-12 24-2.9 16.1 2.5 33.2 14 44.4 17.1 16.7 42.7 19.1 62.3 6 6.2-4.1 11-9.5 22.2-24.7 5.7-7.7 10.6-14.5 11.1-15 .9-1.2 25.8-36.4 30.1-42.5 1.7-2.5 5.1-7.4 7.6-11 2.5-3.6 6.7-9.6 9.3-13.5 2.6-3.8 5.2-7.7 5.9-8.5.7-.8 4.1-5.7 7.5-10.7 3.5-5.1 11.9-17.4 18.7-27.4 12.8-18.8 14.4-22.5 12.7-29.3-.7-2.8-6-8.8-9.3-10.5-3.5-1.8-10.5-1.3-14.7 1zm-58.9 82.1c-2.4 3.8-19.5 28.2-20.4 29.3-.9 1-18.5 25.7-21.3 29.9-3.5 5.1-13.6 18.3-15.7 20.5-6.7 7-17 7.4-24 .9-2.6-2.4-5.5-10.3-4.9-13.3.9-4.3 2.8-8 5.7-10.7 2.5-2.4 17.3-13.6 24.9-18.8 1.2-.8 3.1-2.3 4.3-3.2 1.2-.9 11.2-8 22.2-15.7 11-7.7 20.5-14.5 21.2-15.1.7-.5 1.7-1 2.3-1 .5 0 1-.3 1-.8 0-.6 4.8-4.1 5.9-4.2.2 0-.3 1-1.2 2.2zm102.4-26.8c-4.4 1.6-9 7.2-10.1 12.2-.7 2.9-.4 5 1 8.8 7.7 21.1 9.3 25.9 11 33.1 1 4.5 2.2 10.3 2.6 13.1.4 2.7.9 6.2 1.1 7.9 1.3 8.3.4 41.7-1.2 49.5-.3 1.4-.8 3.8-1.1 5.5-.3 1.6-1.2 5.5-2 8.5s-1.7 6.4-1.9 7.5c-.7 3.2-4.1 12.4-4.8 13.2-.4.3-.7 1.2-.7 2 0 1.5-8.9 20.1-9.9 20.8-.4.2-3.1-.9-6.1-2.3-11.4-5.6-18.5-8.5-21.3-8.7-11.7-1-20.8 11.2-16.6 22.2 1 2.8 6.6 9.3 8 9.3.4 0 7.8 3.4 16.4 7.5 24.9 12 25.5 12.1 33.1 8.4 3.5-1.6 5.4-3.8 10.1-11.2 11.9-18.7 23.5-46.5 26.8-64.2.2-1.1.4-2 .5-2 .2 0 .9-3.6 1.5-8 .3-2.2.7-4.7 1-5.5.8-3 1.7-11.8 2.1-21 .3-5.2.5-10 .6-10.5.1-1.9-1.2-24-1.6-26-.2-1.1-.7-4.5-1.2-7.5-.4-3-.8-5.7-.9-6-.2-1-2.8-12.5-3-14-.2-.8-.4-1.5-.5-1.5-.1 0-.3-.7-.5-1.5-.6-3.3-7.5-22.8-9.8-28-5-11.1-12.9-15.1-22.6-11.6zM456 465.6c-6.5 3-12.2 8.4-15.7 14.7l-2.8 5.2v34c0 18.7.3 34.7.6 35.5 4.9 13.7 16.8 22.4 30.4 22.3 10.9-.1 19.1-4.5 25.4-13.7 5.3-7.7 5.8-11.3 5.6-43.6-.1-29.5-.5-34.1-3.2-39.3-2.6-5.2-10.7-13.7-13-13.7-.7 0-1.3-.4-1.3-.8 0-1.4-9.5-3.3-15.4-3.1-3.4.2-7.7 1.2-10.6 2.5zm17.5 18c6.4 3 6.8 5.4 6.9 36.9 0 25.3-.2 28.3-1.8 31.1-4.8 8.1-14.4 8.6-20 1.1-2-2.7-2.1-4-2.1-32.1 0-32.1.2-33.2 6-36.8 3.7-2.2 6.7-2.3 11-.2zM587 465.9c-6 3.1-12.3 8.8-14.7 13.4-3.3 6.4-3.9 12.8-3.8 43.2v30.1l3.3 6.6c9.9 20.2 35.2 24.5 50.3 8.6 3.9-4.1 7.5-10.5 8.5-15.2.5-2.1.7-25.9.4-51.1-.2-13.2-.3-14.4-3-20-7.6-16.1-26.3-23.1-41-15.6zm20.3 18.9c4 3.5 4.1 5.1 4.4 34.2.2 26.3 0 28.8-1.7 32.5-2.9 5.9-9.3 8.1-15.5 5.3-3.1-1.4-6.5-6.6-6.5-9.9v-13.4c-.1-6.1-.1-11.5 0-12 .2-.6.2-1.2.1-1.5-.3-.9-.2-19.3.1-25.2.4-5.9 2.8-9.9 7.3-11.9 2.8-1.2 9.6-.1 11.8 1.9zM7.2 465.5c-.3.5-.6 25.4-.7 55.2 0 48.3.1 54.4 1.5 54.8 4.1 1.3 32 .4 37.4-1.2C56.6 571 65 562.3 68 551c.9-3 1.3-13.7 1.2-32.5 0-26.1-.1-28.4-2.1-33.6-2.8-7.3-9.3-14.2-16.8-17.6-5.6-2.6-6.4-2.7-24.1-2.7-10.7-.1-18.6.3-19 .9zm37.6 21.2c2 1.6 3.9 4.2 4.4 5.8.4 1.6.7 14.2.7 28-.1 23.1-.2 25.3-2.1 28.6-3.3 5.9-8.5 7.7-20 7-1.7-.1-1.8-2.5-1.8-36 0-40.8-1-36.7 9.3-36.4 4.9.1 6.6.6 9.5 3zm39.5-21.9l-2.2.3-.1 46.2c-.2 58-.2 62.9.9 64 .5.5 2.8.8 5 .5 2.3-.2 4.1-.1 4.1.2 0 .3 2 .4 4.5.2 4.1-.4 4.5-.6 4.6-3.1 0-1.4.1-12 .2-23.6l.2-21 7.4-.1c5.9 0 8 .4 10.5 2.1 5.9 3.9 6.6 6.9 6.6 27.2V576l4.3.1c2.3.1 5.6 0 7.2-.1 1.7-.1 4.1-.3 5.5-.4l2.5-.1-.1-20.1c-.1-19.6-.2-20.2-2.8-26-1.5-3.2-3.4-6.6-4.2-7.6-1.5-1.5-1.4-1.9.5-4 1.2-1.2 3.4-4.7 4.9-7.8 2.3-4.7 2.7-6.8 2.7-14s-.4-9.2-2.7-13.5c-3.2-6.1-7.9-11-13.2-13.8-2.3-1.2-4.3-2.2-4.6-2.2-6.7-1.7-34.1-2.8-41.7-1.7zm33.1 19.4c1.5.1 4.4 1.7 6.4 3.5 3.1 2.9 3.6 3.9 3.6 8 0 9.4-5.3 13.3-18.1 13.3h-7.9v-24.9l4-.3c2.3-.2 5.2-.2 6.6-.1 1.4.1 3.8.4 5.4.5zM160 465c-.4.3-.8 25.4-.9 55.7l-.2 55.3 3.8.1c2.1.1 4.2.1 4.7 0s3.1-.2 5.7-.3c3.6 0 4.9-.4 5.2-1.6.8-3 .2-108-.5-108.8-.9-.8-16.5-1.2-17.8-.4zm28.1-.2c-.6.2-.7 1.2-.1 2.6.4 1.2 1.1 3.8 1.4 5.7.3 1.9 1 5.9 1.6 8.9.6 3 1.3 6.6 1.6 8 .3 1.4 1.2 5.9 2 10 .9 4.1 1.7 8.4 2 9.5.2 1.1.8 4.2 1.4 7 .6 2.7 1.2 6.1 1.5 7.5.6 3.1 1.9 9.3 2 10 .1.3.5 2.3.9 4.5s1.2 6 1.7 8.5 1.2 5.6 1.4 7c1.3 6.9 3.7 18.7 4.1 20.2.3.9 1.3 1.7 2.2 1.7.9 0 4.3 0 7.6.1 3.2 0 6.1-.2 6.4-.5.3-.2 1-.1 1.6.5 1.7 1.3 3.3-.1 3.9-3.5 1.1-6 1.7-9.1 2.7-13.5.5-2.5 1.2-6.1 1.5-8 .4-1.9 1-5.3 1.5-7.5s1.1-5.4 1.4-7c.3-1.7.8-4.1 1.1-5.5.3-1.4.8-4.1 1.1-6 .7-3.9.8-4.4 1.7-8 .4-1.4.9-3.9 1.1-5.5.2-1.7.5-3 .6-3 .1 0 .3-1.1.5-2.5s1.8-9.5 3.5-18 3.3-16.4 3.4-17.5c.1-1.2.5-2.6.9-3.2 1.2-2-1.7-2.9-9.3-2.7-4.1.1-8 .2-8.6.3-.7.1-1.5 1.6-1.8 3.3-.3 1.8-.8 4.3-1 5.4-.2 1.2-.7 3.8-1 5.9-.8 4.7-4.5 26.1-5.2 29.5-.3 1.4-.7 4.1-.9 6-.2 1.9-.7 4.4-.9 5.6-.3 1.2-.8 3.9-1.2 6-.3 2.1-.8 4.6-.9 5.4-.2.8-.4 2.4-.5 3.5-.1 1.9-.2 1.9-1-.2-.5-1.3-1.1-4-1.4-6-.2-2.1-.7-4.9-1-6.3-.3-1.4-.8-4.1-1.1-6-1-5.9-1.5-8.5-2.9-15.5-.3-1.8-1.2-7.3-2.2-13.5-.3-1.4-.7-3.6-.9-5-.8-4-3.5-18.2-3.5-18.4 0-.3-18.2 0-18.9.2zm74.3.3c-.9 1.6-.6 109.1.3 110 .6.6 5.3 1 10.4.9 5.2-.1 10.1-.1 10.9-.1h12c5.9.2 14.5-.1 15.2-.5.4-.3.8-.1.8.5s.7.8 1.5.5c1.2-.5 1.5-2.6 1.5-10 0-5.2-.3-9.5-.7-9.6-.5 0-7.6-.2-15.8-.3-8.3-.1-15.6-.4-16.2-.8-.8-.5-1.2-5-1.1-14.1l.1-13.3 16.6.1h16.6l.1-9.7.1-9.7h-33.5l.1-12.5V484h11.6c6.4-.1 13.9 0 16.6 0l5 .1.1-9.6c.1-5.2-.2-9.5-.5-9.6-3.3-.5-51.4-.2-51.7.2zm91.6-.1c-.5.3-1 25.4-1.2 55.8l-.3 55.2 3 .1c5.9.1 16-.3 16.4-.7.2-.2.4-18.4.4-40.4s.4-40 .8-40 1.1.9 1.4 2c.3 1.1 1 2 1.5 2s1.2.9 1.5 2c.3 1.1 1.2 2.6 1.8 3.2.7.7 3 3.9 5.1 7.1 4.1 6 5.4 6.5 7.1 2.9.5-1.2 1.3-2.2 1.7-2.2.5 0 .8-.5.8-1 0-.6.5-1.6 1-2.3.6-.7 3.3-4.2 5.9-8l4.8-6.7.1 40c0 21.9.3 40.4.6 40.9.7 1 8.6 2 8.6 1.1 0-.4 2.3-.4 5 0 4.1.5 5 .4 5.1-.9v-21.6c0-11-.1-35.5-.1-54.5v-34.5l-10.5.1c-5.8 0-10.6.2-10.8.5-.2.2-2.7 3.8-5.5 7.9-2.9 4.1-6.2 8.8-7.4 10.3l-2.3 2.8-6.5-9.7c-3.6-5.3-6.8-10.1-7.1-10.7-.7-1-19.4-1.6-20.9-.7zm149.8 1c-.2.8-.3 5.1-.3 9.5v8l3.5.2c1.9.1 5.3.2 7.5.2 2.2.1 5.3.1 6.9.1 1.7 0 3.2.2 3.4.4.2.2.4 20.8.5 45.8l.2 45.3 4 .3c5.9.3 13.7.2 14.4-.2.4-.3.6-21 .6-46l-.1-45.6h10.3c6.5 0 10.4-.4 10.9-1.1.7-1.2.6-17.1-.2-17.8-.2-.3-14.1-.5-30.9-.5-26.2-.1-30.4.1-30.7 1.4z"/></svg>